<svg width="512" height="506" viewBox="0 0 512 506" fill="none" xmlns="http://www.w3.org/2000/svg">
<path d="M341.954 325.358C329.823 325.358 319.954 316.816 319.954 306.317C319.954 295.817 329.823 287.275 341.954 287.275C354.085 287.275 363.954 295.817 363.954 306.317C363.954 311.839 368.432 316.317 373.954 316.317C379.476 316.317 383.954 311.839 383.954 306.317C383.954 287.992 370.3 272.584 351.954 268.402V263.201C351.954 257.679 347.476 253.201 341.954 253.201C336.432 253.201 331.954 257.679 331.954 263.201V268.402C313.608 272.584 299.954 287.992 299.954 306.317C299.954 327.844 318.795 345.358 341.954 345.358C354.085 345.358 363.954 353.9 363.954 364.4C363.954 374.9 354.085 383.442 341.954 383.442C329.823 383.442 319.954 374.9 319.954 364.4C319.954 358.878 315.476 354.4 309.954 354.4C304.432 354.4 299.954 358.878 299.954 364.4C299.954 382.725 313.608 398.133 331.954 402.315V406.635C331.954 412.157 336.432 416.635 341.954 416.635C347.476 416.635 351.954 412.157 351.954 406.635V402.315C370.3 398.133 383.954 382.725 383.954 364.4C383.954 342.872 365.113 325.358 341.954 325.358Z" fill="#DB3D44"/>
<path d="M451.482 265.876C438.419 245.521 420.015 229.233 398.26 218.775C393.281 216.381 387.306 218.477 384.914 223.455C382.521 228.433 384.616 234.407 389.594 236.8C427.505 255.024 452 293.963 452 336.001C452 353.989 447.566 371.828 439.179 387.592C436.585 392.467 438.434 398.523 443.31 401.117C444.806 401.913 446.414 402.291 447.998 402.291C451.576 402.291 455.037 400.365 456.835 396.986C466.756 378.342 472 357.253 472 336.001C472 311.041 464.905 286.792 451.482 265.876Z" fill="#DB3D44"/>
<path d="M357.673 206.002L357 206.001C351.478 206.001 347 210.478 347 216.001C347 221.524 351.478 226.001 357 226.001L357.579 226.002C357.595 226.002 357.61 226.002 357.627 226.002C363.128 226.002 367.6 221.556 367.626 216.049C367.651 210.526 363.195 206.028 357.673 206.002Z" fill="#DB3D44"/>
<path d="M294.407 435.202C256.497 416.977 232.002 378.038 232.002 336.001C232.002 318.013 236.436 300.174 244.823 284.41C247.417 279.535 245.568 273.479 240.692 270.885C235.818 268.291 229.76 270.14 227.167 275.016C217.246 293.661 212.002 314.749 212.002 336.001C212.002 360.961 219.097 385.209 232.52 406.126C245.583 426.481 263.987 442.769 285.742 453.228C287.139 453.9 288.615 454.217 290.068 454.217C293.792 454.217 297.366 452.128 299.088 448.548C301.479 443.57 299.385 437.595 294.407 435.202Z" fill="#DB3D44"/>
<path d="M327.002 446.001L326.423 445.999C320.875 445.989 316.403 450.428 316.378 455.952C316.352 461.475 320.81 465.973 326.332 465.999L327.002 466.001C332.524 466.001 337.002 461.523 337.002 456.001C337.002 450.479 332.524 446.001 327.002 446.001Z" fill="#DB3D44"/>
<path d="M387.408 172.168C386.191 169.268 384.7 166.535 382.965 164H408.999C434.363 164 454.999 143.364 454.999 118C454.999 92.6358 434.363 71.9999 408.999 71.9999H328.919C334.01 64.5979 336.999 55.6429 336.999 45.9999C336.999 20.636 316.363 0 290.999 0H45.9999C20.636 0 0 20.636 0 45.9999C0 71.3639 20.636 91.9998 45.9999 91.9998H126.08C120.989 99.4018 118 108.357 118 118C118 127.643 120.988 136.598 126.08 144H99.9998C74.6359 144 53.9999 164.636 53.9999 190C53.9999 204.567 60.8139 217.566 71.4149 226C60.8139 234.434 53.9999 247.433 53.9999 261.999C53.9999 276.566 60.8139 289.565 71.4149 297.999C60.8139 306.433 53.9999 319.432 53.9999 333.999C53.9999 348.566 60.8139 361.565 71.4149 369.999C60.8139 378.433 53.9999 391.432 53.9999 405.999C53.9999 431.363 74.6359 451.999 99.9998 451.999H217.85C248.896 485.206 293.061 506 342 506C435.738 506 512 429.738 512 336C512 257.984 459.17 192.083 387.408 172.168ZM408.999 91.9998C423.336 91.9998 434.999 103.664 434.999 118C434.999 132.336 423.336 144 408.999 144H344.999H164C149.663 144 138 132.336 138 118C138 103.664 149.663 91.9998 164 91.9998H408.999ZM45.9999 71.9999C31.6629 71.9999 20 60.3359 20 45.9999C20 31.6639 31.6629 20 45.9999 20H290.999C305.336 20 316.999 31.6639 316.999 45.9999C316.999 60.3359 305.336 71.9999 290.999 71.9999H45.9999ZM99.9998 164H344.999C349.027 164 352.884 164.936 356.344 166.612C351.614 166.215 346.832 166.001 342 166.001C295.055 166.001 252.495 185.13 221.702 216H99.9998C85.6638 216 73.9999 204.336 73.9999 190C73.9999 175.664 85.6638 164 99.9998 164ZM99.9998 236H204.615C193.263 251.553 184.486 269.094 178.912 287.999H99.9998C85.6628 287.999 73.9999 276.336 73.9999 261.999C73.9999 247.664 85.6628 236 99.9998 236ZM99.9998 307.999H174.32C172.803 317.112 172.001 326.463 172.001 336C172.001 344.146 172.59 352.156 173.703 359.999H99.9998C85.6628 359.999 73.9999 348.336 73.9999 333.999C73.9999 319.662 85.6628 307.999 99.9998 307.999ZM99.9998 431.999C85.6628 431.999 73.9999 420.336 73.9999 405.999C73.9999 391.662 85.6628 379.999 99.9998 379.999H177.786C182.832 398.812 191.029 416.345 201.779 431.999H99.9998ZM342 486C259.29 486 192.001 418.71 192.001 336C192.001 253.291 259.29 186.001 342 186.001C424.71 186.001 492 253.291 492 336C492 418.71 424.71 486 342 486Z" fill="#DB3D44"/>
</svg>
