<svg width="512" height="512" viewBox="0 0 512 512" fill="none" xmlns="http://www.w3.org/2000/svg">
<path d="M104 120C104 110.456 99.8 101.864 93.144 96C99.8 90.136 104 81.544 104 72C104 54.352 89.648 40 72 40H40V152H72C89.648 152 104 137.648 104 120ZM72 136H56V104H72C80.824 104 88 111.176 88 120C88 128.824 80.824 136 72 136ZM72 88H56V56H72C80.824 56 88 63.176 88 72C88 80.824 80.824 88 72 88Z" fill="#DB3D44"/>
<path d="M152 152C169.648 152 184 137.648 184 120V40H168V120C168 128.824 160.824 136 152 136C143.176 136 136 128.824 136 120V40H120V120C120 137.648 134.352 152 152 152Z" fill="#DB3D44"/>
<path d="M232 152H248V105.888L279.16 43.576L264.84 36.424L240 86.1119L215.16 36.424L200.84 43.576L232 105.888V152Z" fill="#DB3D44"/>
<path d="M504 385.216V344H488V168H440V344H424V200H376V344H360V232H312V344H305.896L297.816 284.752C296.192 272.92 285.968 264 274.032 264H240C233.832 264 228.256 266.408 224 270.24C219.744 266.4 214.168 264 208 264C204.84 264 201.84 264.648 199.072 265.76C196.312 255.56 187.064 248 176 248C169.832 248 164.256 250.408 160 254.24C155.744 250.4 150.168 248 144 248C141.184 248 138.512 248.576 136 249.472V184H288C301.232 184 312 173.232 312 160V32C312 18.768 301.232 8 288 8H32C18.768 8 8 18.768 8 32V160C8 173.232 18.768 184 32 184H88V328.112C88 331.752 87.16 335.4 85.552 338.664L78.84 305.104C74.024 281.096 52.768 263.664 28.28 263.664C17.104 263.664 8 272.76 8 283.944C8 287.96 9.176 291.848 11.408 295.192L19.64 307.536C22.688 312.112 24.656 317.408 25.336 322.864L30.872 367.128C31.784 374.504 34.12 381.512 37.568 387.496L64 441.84V456H48V504H224V456H208V442.664L220.8 425.6C228.024 415.968 232 404.04 232 392V310.528C234.512 311.424 237.184 312 240 312H285.384L303.032 441.44C289.768 445.344 280 457.488 280 472C280 489.648 294.352 504 312 504C329.648 504 344 489.648 344 472C344 466.144 342.304 460.728 339.552 456H444.456C441.696 460.728 440 466.144 440 472C440 489.648 454.352 504 472 504C489.648 504 504 489.648 504 472C504 454.352 489.648 440 472 440H318.984L316.56 422.224L481.896 409.144C494.288 408.16 504 397.656 504 385.216V385.216ZM32 168C27.584 168 24 164.408 24 160V32C24 27.592 27.584 24 32 24H288C292.416 24 296 27.592 296 32V160C296 164.408 292.416 168 288 168H136C136 154.768 125.232 144 112 144C98.768 144 88 154.768 88 168H32ZM208 488H64V472H208V488ZM216 392C216 400.6 213.16 409.128 208 416L192 437.336V456H80V438.16L51.712 380.032C49.072 375.424 47.408 370.416 46.752 365.152L41.208 320.88C40.224 312.984 37.376 305.296 32.952 298.664L24.72 286.32C24.248 285.616 24 284.792 24 283.944C24 281.584 25.92 279.664 28.28 279.664C45.168 279.664 59.832 291.68 63.152 308.248L73.44 359.664H92.944L99.776 346C102.536 340.472 104 334.28 104 328.112V168C104 163.592 107.584 160 112 160C116.416 160 120 163.592 120 168V272V304H136V272C136 267.592 139.584 264 144 264C148.416 264 152 267.592 152 272V304H168V272C168 267.592 171.584 264 176 264C180.416 264 184 267.592 184 272V288V304H200V288C200 283.592 203.584 280 208 280C212.416 280 216 283.592 216 288V392ZM240 296C235.584 296 232 292.408 232 288C232 283.592 235.584 280 240 280H274.032C278.016 280 281.424 282.976 281.96 286.92L283.2 296H240ZM472 456C480.824 456 488 463.176 488 472C488 480.824 480.824 488 472 488C463.176 488 456 480.824 456 472C456 463.176 463.176 456 472 456ZM456 184H472V344H456V184ZM392 216H408V344H392V216ZM328 248H344V344H328V248ZM328 472C328 480.824 320.824 488 312 488C303.176 488 296 480.824 296 472C296 463.176 303.176 456 312 456C320.824 456 328 463.176 328 472ZM314.392 406.344L308.08 360H488V385.216C488 389.36 484.768 392.864 480.632 393.192L314.392 406.344Z" fill="#DB3D44"/>
</svg>
